<svg width="1321" height="220" viewBox="0 0 1321 220" fill="none" xmlns="http://www.w3.org/2000/svg">
<path fill-rule="evenodd" clip-rule="evenodd" d="M305.862 0.559072C292.549 1.83334 274.718 7.28831 263.284 13.5875C245.787 23.226 226.303 42.3082 227.586 48.5526C227.922 50.1862 235.227 61.8594 243.821 74.4924L259.444 97.4624L261.345 90.9439C266.264 74.074 280.733 58.1694 296.656 52.1286C309.986 47.0705 328.363 47.3418 340.38 52.7737C354.121 58.9848 360.269 65.2392 385.064 98.2431C433.363 162.531 441.716 173.065 454.44 185.733C472.47 203.685 488.847 212.793 511.964 217.725C527.883 221.121 554.957 219.698 569.945 214.676C606.681 202.366 633.282 173.908 642.78 136.757C646.365 122.731 646.713 97.8145 643.512 84.2363C639.021 65.1902 628.167 46.1454 613.666 31.8673C570.274 -10.8559 498.054 -10.4591 454.361 32.7418C448.73 38.3093 442.967 44.6591 441.555 46.8526L438.987 50.8399L457.439 75.354C467.588 88.8369 476.406 99.8681 477.033 99.8681C477.663 99.8681 478.625 97.4335 479.172 94.4564C482.074 78.676 495.339 61.8378 510.778 54.3365C518.391 50.6364 521.335 50.0664 535.173 49.6104C550.576 49.1024 551.115 49.1933 560.428 53.8632C578.584 62.9663 590.509 79.7483 593.774 100.79C596.674 119.484 591.074 139.412 579.299 152.295C557.627 176.009 519.772 178.183 497.264 157.007C492.968 152.963 477.67 134.07 463.272 115.021C405.724 38.8895 397.359 29.0562 381.12 18.4522C359.528 4.35303 332.748 -2.01399 305.862 0.559072ZM82.8958 3.19276C52.4779 10.7561 25.3561 32.3349 11.5499 59.9589C2.1596 78.7453 -0.0454743 88.2943 0.000705215 109.97C0.0310105 124.177 0.719365 130.403 3.24336 139.278C13.8747 176.659 43.5076 206.404 80.0096 216.333C93.416 219.981 126.466 219.945 138.391 216.269C152.068 212.054 166.287 204.382 180.619 193.488C194.321 183.072 201.231 176.125 201.231 172.764C201.231 171.706 194.639 162.014 186.582 151.228C169.148 127.887 168.42 127.59 158.936 139.914C149.85 151.72 140.236 160.14 130.771 164.577C123.508 167.981 120.868 168.411 107.429 168.377C93.6556 168.341 91.5645 167.965 84.4673 164.265C73.4319 158.512 63.2103 147.427 57.0526 134.533C52.2153 124.404 51.8718 122.764 51.905 109.97C51.9324 99.4698 52.68 94.2804 55.0986 87.8037C64.3778 62.9534 88.9958 46.4326 113.938 48.3188C133.114 49.7691 147.918 59.5837 161.977 80.1639C198.786 134.045 222.345 167.313 230.604 177.074C247.132 196.61 267.472 210.279 288.797 216.183C300.11 219.314 326.856 220.431 339.175 218.287C352.282 216.004 369.536 209.205 380.069 202.17C389.572 195.826 406.895 178.978 410.874 172.213C413.408 167.902 413.395 167.824 409.34 163.089C407.09 160.463 401.104 152.469 396.037 145.326C390.972 138.183 384.556 129.521 381.781 126.078L376.734 119.819L374.389 128.39C365.073 162.425 330.507 179.87 296.977 167.458C281.857 161.861 277.932 157.628 251.028 117.907C213.067 61.8609 204.313 49.2453 197.454 40.7006C183.362 23.1466 160.102 8.6174 137.364 3.16678C121.762 -0.575202 98.0051 -0.562206 82.8958 3.19276ZM662.285 3.43807C661.886 4.48721 661.725 52.7506 661.93 110.691L662.304 216.038H688.28H714.256L714.977 173.467C715.374 150.052 716.224 130.084 716.867 129.091C717.509 128.1 720.137 127.287 722.707 127.287C728.012 127.287 731.706 130.719 746.789 149.655C751.847 156.005 766.313 173.702 778.935 188.98L801.884 216.76H831.875C864.374 216.76 866.286 216.266 860.869 209.276C859.444 207.439 852.138 196.845 844.631 185.733C827.624 160.557 793.74 111.166 788.251 103.551C785.993 100.416 784.33 97.0554 784.557 96.0799C784.784 95.1058 802.737 74.3972 824.456 50.0621C849.052 22.5016 863.433 5.30403 862.59 4.46125C861.846 3.71661 848.031 2.9027 831.891 2.6516C806.202 2.2533 802.261 2.49143 800.251 4.56373C798.99 5.86542 784.319 22.8046 767.651 42.2058C729.308 86.8368 729.266 86.8801 724.004 86.8801C715.221 86.8801 714.977 85.6837 714.977 42.5593C714.977 6.58117 714.78 3.46693 712.452 2.87814C711.064 2.52746 699.372 2.08013 686.47 1.88675C668.114 1.60967 662.855 1.94734 662.285 3.43807ZM881.286 2.90412C879.853 3.83637 879.551 26.245 879.843 110.061L880.213 216.038H906.189H932.165L932.536 110.774C932.756 48.1355 932.369 4.97067 931.579 4.18129C929.894 2.49574 883.717 1.32392 881.286 2.90412ZM957.299 3.25482C956.488 3.75557 956.104 45.9145 956.327 110.061L956.698 216.038L1089.46 216.415C1233.09 216.822 1234.12 216.776 1253.2 209.072C1266.88 203.545 1277.22 196.708 1288.18 185.934C1301.28 173.063 1309.83 159.647 1315.59 142.936C1319.97 130.233 1320.24 128.283 1320.22 109.248C1320.19 90.4229 1319.89 88.1818 1315.75 76.4017C1306.26 49.3535 1289.53 29.6334 1264.08 15.4693C1243.56 4.04851 1228.63 2.02819 1166.67 2.2865L1125.54 2.45822L1124.82 83.0284C1124.12 160.906 1124.01 163.668 1121.27 165.664C1118.92 167.385 1109.32 167.665 1063.55 167.351L1008.65 166.973L1008.23 151.82C1008 143.486 1008.17 135.217 1008.61 133.443L1009.42 130.22L1048.72 129.836L1088.02 129.452L1088.42 108.166L1088.82 86.8801H1050.11C1021.92 86.8801 1010.92 86.4096 1009.66 85.1483C1007.21 82.6979 1007.27 52.8271 1009.73 51.2844C1010.73 50.6624 1031.34 50.013 1055.55 49.8427C1079.76 49.671 1100.05 49.492 1100.65 49.4444C1101.24 49.3982 1101.73 39.0381 1101.73 26.4239C1101.73 9.40533 1101.27 3.31109 1099.93 2.80023C1097.35 1.81748 958.912 2.25763 957.299 3.25482ZM1235.94 56.7797C1257.8 67.0417 1269.12 87.8744 1267.3 114.5C1265.81 136.123 1255.08 152.324 1236.09 161.609L1225.12 166.973L1202.19 167.463C1184.19 167.85 1179 167.54 1178.04 166.02C1176.62 163.778 1176.31 56.5791 1177.71 52.9208C1178.55 50.7244 1181.03 50.5368 1201.88 51.0866C1224.89 51.6928 1225.22 51.7505 1235.94 56.7797Z" fill="#06B6D4"/>
</svg>
